<?xml version="1.0" encoding="UTF-8"?>
<svg version="1.1" xmlns="http://www.w3.org/2000/svg" width="512" height="512">
<path d="M0 0 C168.96 0 337.92 0 512 0 C512 168.96 512 337.92 512 512 C343.04 512 174.08 512 0 512 C0 343.04 0 174.08 0 0 Z " fill="#1E1A09" transform="translate(0,0)"/>
<path d="M0 0 C1.65 0.33 3.3 0.66 5 1 C7.46273973 9.26589772 9.68148078 17.53196389 11.51660156 25.96069336 C12.31958024 29.53755932 13.2905069 32.90058724 14.62109375 36.3203125 C16 40 16 40 16 43 C16.66 43 17.32 43 18 43 C19.04743622 44.66734745 20.01006302 46.38803979 20.9375 48.125 C28.06804505 60.69610645 37.82984896 71.37129279 47.6875 81.859375 C68 103.57774364 68 103.57774364 68 112 C68.66 112 69.32 112 70 112 C70.83739781 114.1234016 71.66980283 116.2487728 72.5 118.375 C73.19609375 120.15003906 73.19609375 120.15003906 73.90625 121.9609375 C75 125 75 125 75 127 C76.485 127.495 76.485 127.495 78 128 C79.19661852 129.46895239 80.3919448 130.93900856 81.57617188 132.41796875 C90.30257394 142.11397104 107.56892674 148.69784375 120.32421875 149.43359375 C129.63121598 149.67476349 138.93504994 149.21760581 148 147 C148.99386719 146.78988281 149.98773438 146.57976562 151.01171875 146.36328125 C158.10094233 144.57571565 163.89292015 141.53371452 170 137.625 C170.71824951 137.16681885 171.43649902 136.7086377 172.17651367 136.23657227 C178.1464207 132.24890212 182.52077519 128.02316578 185.1875 121.1875 C186.79562044 117.10218978 186.79562044 117.10218978 189 116 C189.40869053 114.577041 189.75087639 113.13481856 190.0625 111.6875 C193.51346258 99.53109412 204.41006725 89.92138915 212.8828125 80.9453125 C222.25016129 70.981942 230.62193315 60.75005977 237.625 48.94921875 C238.07875 48.30597656 238.5325 47.66273438 239 47 C239.66 47 240.32 47 241 47 C248.23163901 26.27161319 248.23163901 26.27161319 252.5625 4.8125 C253 2 253 2 255 0 C259.55555556 0.55555556 259.55555556 0.55555556 261 2 C262.63151977 34.6303953 244.37100039 64.03077161 223.65234375 87.6796875 C222.19512842 89.28853546 220.73428291 90.89410409 219.26953125 92.49609375 C216.67646381 95.35694785 214.13207366 98.25120506 211.625 101.1875 C210.40683594 102.60095703 210.40683594 102.60095703 209.1640625 104.04296875 C206.82699239 107.2364021 205.46590448 110.3352388 204 114 C203.19352073 115.51460742 202.36323503 117.0170065 201.5 118.5 C198.76703061 123.32770042 196.59655392 128.24173583 194.8125 133.5 C191.71859533 139.4744366 186.51694259 142.99374469 181.0625 146.75 C177.77555033 148.71118967 177.77555033 148.71118967 177 152 C174.85546875 153.3515625 174.85546875 153.3515625 172.1875 154.625 C171.31480469 155.05039062 170.44210937 155.47578125 169.54296875 155.9140625 C167.35098083 156.85011879 165.32557769 157.51211657 163 158 C163 158.66 163 159.32 163 160 C162.29875 160.10957031 161.5975 160.21914063 160.875 160.33203125 C155.6735471 161.2012958 150.88008841 162.17693334 146.046875 164.31640625 C139.81422457 166.39792118 133.12354626 166.21286545 126.625 166.25 C125.28308594 166.2809375 125.28308594 166.2809375 123.9140625 166.3125 C117.68638561 166.34870742 112.78407768 165.22377859 107 163 C105.4221875 162.52626953 105.4221875 162.52626953 103.8125 162.04296875 C97.79699218 160.21325179 93.0512126 157.99307086 87.9609375 154.30859375 C85.89943957 152.80576375 85.89943957 152.80576375 82.75 151.9375 C79.19687309 150.72620674 77.4302333 148.71462231 75 146 C74.3296875 145.35546875 73.659375 144.7109375 72.96875 144.046875 C65.66956461 136.69769519 62.07578368 128.33921293 58 119 C53.1670099 108.23787772 46.96318571 100.11168182 38.79833984 91.61914062 C17.71430304 69.53044219 -1.22542265 39.17000106 -1.125 7.6875 C-1.12757812 6.86636719 -1.13015625 6.04523438 -1.1328125 5.19921875 C-1 3 -1 3 0 0 Z " fill="#B39144" transform="translate(118,198)"/>
<path d="M0 0 C0.65261598 12.01811935 -1.07660557 23.28728875 -3.25317383 35.08300781 C-3.8173534 38.15139605 -4.356204 41.22351715 -4.89257812 44.296875 C-5.24591642 46.26328724 -5.60068194 48.22944368 -5.95703125 50.1953125 C-6.11653763 51.10677032 -6.27604401 52.01822815 -6.44038391 52.95730591 C-7.84188481 60.42435867 -10.55526035 64.73864115 -15.75 70.3125 C-19.300611 74.15599787 -22.79775497 78.02848636 -26.2265625 81.98046875 C-28.268197 84.30541377 -30.35334349 86.58811837 -32.4375 88.875 C-36.31484184 93.15803284 -39.92924862 97.59922937 -43.46875 102.1640625 C-43.9740625 102.76992188 -44.479375 103.37578125 -45 104 C-45.33 104 -45.66 104 -46 104 C-46.20180023 92.89351309 -45.63655734 82.04520155 -44.5 71 C-44.35475667 69.53132025 -44.21022279 68.06257016 -44.06640625 66.59375 C-43.71905729 63.06165668 -43.36230986 59.53059399 -43 56 C-43.83660156 56.6290625 -44.67320312 57.258125 -45.53515625 57.90625 C-51.86358753 62.58805855 -58.23777021 66.91118204 -65.1875 70.625 C-65.82244385 70.96724609 -66.4573877 71.30949219 -67.11157227 71.66210938 C-69.94739131 73.13693458 -71.75679899 74 -75 74 C-75.33 74.99 -75.66 75.98 -76 77 C-78.36328125 78.09765625 -78.36328125 78.09765625 -81.3125 79.0625 C-85.31865354 80.38171157 -85.31865354 80.38171157 -89.15234375 82.11328125 C-91.78146035 83.37503488 -94.12992273 83.13045806 -97 83 C-96.4286639 79.04296852 -95.22425343 76.40819663 -93.0625 73.0625 C-90.81075848 69.44999382 -89.09248168 66.15143038 -88 62 C-87.34 62 -86.68 62 -86 62 C-85.92136719 61.02417969 -85.84273437 60.04835937 -85.76171875 59.04296875 C-83.73942162 45.18623057 -73.27892852 34.35114491 -62.64257812 26.27880859 C-60.22568861 24.39716958 -57.99626505 22.33026747 -55.75 20.25 C-42.20109689 8 -42.20109689 8 -38 8 C-38 12.95 -38 17.9 -38 23 C-34.0140416 22.0035104 -33.53775703 21.75843155 -31 19 C-28 17 -28 17 -24 17 C-24 16.34 -24 15.68 -24 15 C-22.06656418 13.70008565 -20.07517981 12.48598685 -18.0625 11.3125 C-12.95972264 8.29090739 -8.27799017 5.04923858 -3.70703125 1.25 C-2 0 -2 0 0 0 Z " fill="#D1B95F" transform="translate(289,163)"/>
<path d="M0 0 C0.495 0.495 0.495 0.495 1 1 C0.94921875 2.92578125 0.94921875 2.92578125 0.6875 5.3125 C0.60886719 6.09238281 0.53023438 6.87226563 0.44921875 7.67578125 C-0.52787563 12.73118259 -3.32230766 15.60726203 -7 19 C-7.68707031 19.64582031 -8.37414062 20.29164063 -9.08203125 20.95703125 C-15.6458543 26.9841192 -15.6458543 26.9841192 -19.6875 28.875 C-23.75115766 31.48187473 -25.15886687 34.16941213 -27.4609375 38.32421875 C-34.18052813 50.00675576 -34.18052813 50.00675576 -40 52 C-48.37365376 52.86939575 -56.06290359 53.07262401 -63.3984375 48.484375 C-65.20472331 46.81025644 -65.95741455 45.20962494 -67 43 C-66.39526855 42.98541748 -65.79053711 42.97083496 -65.16748047 42.95581055 C-62.40270735 42.88090812 -59.63908643 42.78438927 -56.875 42.6875 C-55.44800781 42.65366211 -55.44800781 42.65366211 -53.9921875 42.61914062 C-48.60461174 42.41336516 -44.69101893 41.94570717 -40 39 C-40 38.01 -40 37.02 -40 36 C-44.95 35.67 -49.9 35.34 -55 35 C-55 27.74 -55 20.48 -55 13 C-52.03 13 -49.06 13 -46 13 C-45.67 16.96 -45.34 20.92 -45 25 C-43.68 25 -42.36 25 -41 25 C-40.90912109 23.98679687 -40.90912109 23.98679687 -40.81640625 22.953125 C-40.73261719 22.06109375 -40.64882813 21.1690625 -40.5625 20.25 C-40.48128906 19.36828125 -40.40007812 18.4865625 -40.31640625 17.578125 C-40.03761535 15.30649548 -39.61209423 13.20148177 -39 11 C-31.8660775 9.11556764 -31.8660775 9.11556764 -28.51171875 8.66796875 C-21.24460352 7.68825396 -15.59252181 4.99810226 -9.26171875 1.4609375 C-5.83824027 -0.07245286 -3.70232447 -0.38281051 0 0 Z " fill="#A27B36" transform="translate(297,404)"/>
<path d="M0 0 C0.99 0.66 1.98 1.32 3 2 C2.67 4.97 2.34 7.94 2 11 C1.34 11 0.68 11 0 11 C-0.66 13.64 -1.32 16.28 -2 19 C-2.66 19 -3.32 19 -4 19 C-4.27070313 19.73476563 -4.54140625 20.46953125 -4.8203125 21.2265625 C-8.81094538 30.60851398 -15.9667106 35.73694537 -25 40 C-25.66 40 -26.32 40 -27 40 C-27.33 40.99 -27.66 41.98 -28 43 C-30.6171875 43.9140625 -30.6171875 43.9140625 -33.875 44.625 C-38.48012733 45.65689673 -38.48012733 45.65689673 -43 47 C-44.39439664 47.06665376 -45.79169875 47.08538199 -47.1875 47.0625 C-48.445625 47.041875 -49.70375 47.02125 -51 47 C-51.89115181 38.31126982 -52.11624638 29.73139464 -52 21 C-50.64455078 20.70996094 -50.64455078 20.70996094 -49.26171875 20.4140625 C-48.08222656 20.15367187 -46.90273438 19.89328125 -45.6875 19.625 C-44.51574219 19.36976563 -43.34398437 19.11453125 -42.13671875 18.8515625 C-38.87079555 18.14304469 -38.87079555 18.14304469 -36 16 C-33.66607501 15.41037685 -31.32909599 14.99168083 -28.9609375 14.5625 C-28.31382812 14.376875 -27.66671875 14.19125 -27 14 C-26.67 13.34 -26.34 12.68 -26 12 C-24.11250158 11.08995612 -22.22429093 10.1813519 -20.33203125 9.28125 C-16.90287323 7.39722348 -13.98909031 4.97505341 -10.98046875 2.48828125 C-7.44207516 -0.17074825 -4.30023014 -0.26876438 0 0 Z " fill="#A67D37" transform="translate(309,355)"/>
<path d="M0 0 C3.83901077 0.14073767 5.63851755 1.70576707 8.3125 4.375 C18.31407545 16.56280622 24.39848577 30.98006214 24.5234375 46.78125 C23.94911494 51.06723923 23.15558645 52.78163622 20 55.6875 C16.875 56.1875 16.875 56.1875 14 55.6875 C11.91612905 52.56169357 11.64013251 51.23918963 11.25390625 47.609375 C11.13853516 46.61292969 11.02316406 45.61648437 10.90429688 44.58984375 C10.67815203 42.50414217 10.45415994 40.41820594 10.23242188 38.33203125 C9.28880014 30.23043909 7.2273167 24.67176238 3 17.6875 C2.67 16.841875 2.34 15.99625 2 15.125 C0.97096383 12.61672434 -0.37122419 10.83452266 -2 8.6875 C-2 8.0275 -2 7.3675 -2 6.6875 C-2.66 6.6875 -3.32 6.6875 -4 6.6875 C-4.042721 5.02138095 -4.04063832 3.35367115 -4 1.6875 C-3 0.6875 -3 0.6875 0 0 Z " fill="#D5C56C" transform="translate(355,116.3125)"/>
<path d="M0 0 C2.86047805 1.23049919 5.62150435 2.57404466 8.38916016 4.00097656 C9.38222168 4.49476807 10.3752832 4.98855957 11.3984375 5.49731445 C21.58648667 10.65216812 32.76427266 16.3170723 41.20166016 24.12597656 C41.63916016 27.75097656 41.63916016 27.75097656 41.20166016 31.12597656 C39.20166016 33.12597656 39.20166016 33.12597656 35.99462891 33.53222656 C31.47532952 33.04818214 28.96651001 31.36263154 25.51416016 28.62597656 C24.28756761 27.70111003 23.0596806 26.77795802 21.83056641 25.85644531 C21.22229004 25.39415527 20.61401367 24.93186523 19.98730469 24.45556641 C16.43630251 21.81149232 12.70584102 19.4335953 9.00634766 17.00488281 C6.30687539 15.19646198 3.69607421 13.29769622 1.07666016 11.37597656 C-3.60468144 8.05813252 -8.42269648 6.04880284 -13.79833984 4.12597656 C-14.45833984 3.79597656 -15.11833984 3.46597656 -15.79833984 3.12597656 C-15.79833984 2.13597656 -15.79833984 1.14597656 -15.79833984 0.12597656 C-11.07453577 -2.23592547 -4.90115357 -1.53080874 0 0 Z " fill="#DFD490" transform="translate(302.79833984375,67.8740234375)"/>
<path d="M0 0 C0.50535922 5.87851677 -0.82933767 8.97649113 -4.25 13.5625 C-8.50214491 19.64137566 -10.60527081 25.08031946 -12.34375 32.33203125 C-13 35 -13 35 -14 36 C-14.28659671 39.55743849 -14.4490807 43.11499153 -14.62109375 46.6796875 C-15 50 -15 50 -17 53 C-20.7969768 53.4922007 -23.11847423 53.48483917 -26.5 51.625 C-28.9138585 47.40074763 -27.80285139 43.6484421 -27 39 C-26.87818359 37.83791016 -26.87818359 37.83791016 -26.75390625 36.65234375 C-25.77783898 29.43426602 -22.40725879 23.66277775 -18.875 17.41796875 C-16.99800196 14.18212486 -16.99800196 14.18212486 -15.96484375 11.28125 C-14.86767679 8.68713866 -13.58892417 7.25176614 -11.5625 5.3125 C-10.66724609 4.44044922 -10.66724609 4.44044922 -9.75390625 3.55078125 C-6.37241195 0.56090767 -4.44276523 -0.24014947 0 0 Z " fill="#E2D273" transform="translate(143,117)"/>
<path d="M0 0 C0.625 1.875 0.625 1.875 1 4 C-1.28572481 6.28572481 -2.04491284 6.3190313 -5.1328125 6.80078125 C-10.26885523 7.85735621 -13.71780151 10.08895083 -17.875 13.1875 C-19.27103184 14.18904005 -20.66817055 15.18903903 -22.06640625 16.1875 C-22.73816895 16.6721875 -23.40993164 17.156875 -24.10205078 17.65625 C-26.61206838 19.43334504 -29.19889084 21.06758729 -31.8125 22.6875 C-36.60835802 25.66773153 -41.05562385 29.00643846 -45.4921875 32.49609375 C-48.31024769 34.18605197 -49.77362334 34.4122287 -53 34 C-54.8125 32.875 -54.8125 32.875 -56 31 C-56.625 28.1875 -56.625 28.1875 -56 25 C-50.86290537 19.22076854 -43.79008788 15.90584774 -37.07421875 12.24609375 C-33.52387576 10.309769 -30.07481423 8.23594713 -26.625 6.125 C-17.77653848 0.978324 -10.18965674 -0.52304322 0 0 Z " fill="#DED390" transform="translate(207,67)"/>
<path d="M0 0 C3.061615 0.8798255 5.00430633 2.14074427 7.56640625 4.0234375 C8.36820313 4.60609375 9.17 5.18875 9.99609375 5.7890625 C11.33027344 6.77132813 11.33027344 6.77132813 12.69140625 7.7734375 C13.30669189 8.07016357 13.92197754 8.36688965 14.5559082 8.67260742 C16.76251746 9.85622603 18.13266369 10.79935432 19.69140625 12.7734375 C20.56509362 17.0691946 20.35121552 21.22525573 20.12890625 25.5859375 C20.09732422 26.75576172 20.06574219 27.92558594 20.03320312 29.13085938 C19.9508198 32.01427587 19.83584632 34.89257237 19.69140625 37.7734375 C16.75390625 37.3984375 16.75390625 37.3984375 13.69140625 36.7734375 C13.36140625 36.1134375 13.03140625 35.4534375 12.69140625 34.7734375 C12.08167969 34.495 11.47195312 34.2165625 10.84375 33.9296875 C2.67631535 29.5421001 -2.20103388 16.11984831 -5.30859375 7.7734375 C-5.65851097 4.83413281 -5.71247756 3.41114877 -4.12109375 0.8984375 C-2.30859375 -0.2265625 -2.30859375 -0.2265625 0 0 Z " fill="#A47C36" transform="translate(189.30859375,354.2265625)"/>
<path d="M0 0 C2.1903597 7.01576787 -1.89975573 15.62660023 -5 22 C-7.92018174 26.54997247 -11.63149502 30.40101939 -15.37255859 34.27929688 C-18.18108125 37.24876397 -20.79664269 40.38191918 -23.4375 43.5 C-24.84487937 45.14045753 -26.25354212 46.77979091 -27.66357422 48.41796875 C-28.58734558 49.51150883 -29.49430014 50.61939757 -30.38720703 51.73828125 C-31.55116733 53.19206128 -32.77126028 54.60054344 -34 56 C-34.66 56 -35.32 56 -36 56 C-37.06517795 41.91598046 -37.06517795 41.91598046 -34.7578125 37.765625 C-33.0625 36.1875 -33.0625 36.1875 -31.109375 34.67578125 C-28.57868244 32.66528661 -26.80588007 30.41765086 -24.8125 27.875 C-20.37746696 22.36342903 -15.63954624 17.20302907 -10.81640625 12.03515625 C-7.87545235 8.88124692 -5.02526434 5.65456406 -2.20703125 2.390625 C-1.49611889 1.57158034 -0.76688674 0.76688674 0 0 Z " fill="#B99B4C" transform="translate(276,238)"/>
<path d="M0 0 C3.21666411 -0.35297907 4.62652052 -0.25986639 7.32421875 1.6171875 C8.10410156 2.36226563 8.88398438 3.10734375 9.6875 3.875 C10.99460937 5.12023437 10.99460937 5.12023437 12.328125 6.390625 C13.20984375 7.25171875 14.0915625 8.1128125 15 9 C15.81984375 9.75796875 16.6396875 10.5159375 17.484375 11.296875 C22.48383427 16.04158476 26.78630815 21.09610608 30.875 26.625 C31.32738037 27.23424316 31.77976074 27.84348633 32.24584961 28.47119141 C42.35988663 42.51877948 49.51499966 61.59531212 47 79 C46.34 79.99 45.68 80.98 45 82 C44.34 82 43.68 82 43 82 C41.01455779 77.82977398 40.71726035 74.27872364 40.5625 69.6875 C40.29162703 63.84609621 39.26344201 59.37567478 37 54 C36.81363386 52.65081418 36.66834219 51.29537781 36.5625 49.9375 C35.89386671 45.25706697 34.61885058 42.88859632 32 39 C31.34 38.67 30.68 38.34 30 38 C29.59201172 36.42798828 29.59201172 36.42798828 29.17578125 34.82421875 C28.09062239 30.68539961 25.98899466 28.05920971 23.1875 24.8125 C22.33542969 23.80832031 21.48335938 22.80414063 20.60546875 21.76953125 C18.20760385 19.22067636 15.73676664 17.16530477 13 15 C11.80072006 13.65335092 10.63168601 12.27893123 9.5 10.875 C6.81727665 7.69439132 4.88866884 6.48684397 1 5 C0.1875 2.375 0.1875 2.375 0 0 Z " fill="#C9B760" transform="translate(299,106)"/>
<path d="M0 0 C-0.56008177 3.58607913 -1.70131424 4.93855609 -4.5 7.1875 C-7.75055058 9.90998279 -10.85165885 12.71308022 -13.875 15.6875 C-14.98488281 16.77611328 -14.98488281 16.77611328 -16.1171875 17.88671875 C-17.8927823 19.87965814 -18.87067198 21.61084383 -20 24 C-21.0828125 25.0209375 -21.0828125 25.0209375 -22.1875 26.0625 C-34.80639133 38.27071735 -37.94943795 55.65294346 -38.65625 72.38671875 C-39.01928025 76.20266176 -39.84142035 79.36075181 -41 83 C-44.875 82.125 -44.875 82.125 -46 81 C-46.67986618 71.8348809 -45.63720999 63.75018982 -43 55 C-42.77183594 54.113125 -42.54367188 53.22625 -42.30859375 52.3125 C-40.95080589 47.22273523 -39.12686736 43.21910852 -36.1796875 38.859375 C-34.80573175 36.81972398 -34.80573175 36.81972398 -33.625 33.5625 C-28.83921405 23.07058465 -11.96065785 0 0 0 Z " fill="#CABC6E" transform="translate(195,106)"/>
<path d="M0 0 C3.01372505 1.03236114 3.8891675 1.79211252 5.4140625 4.65234375 C10.78454564 19.22194478 16.69829606 43.0943056 10 58 C9.34 58 8.68 58 8 58 C8 56.68 8 55.36 8 54 C7.34 54 6.68 54 6 54 C5.92483154 52.8354126 5.84966309 51.6708252 5.7722168 50.47094727 C5.48785082 46.11461968 5.18773326 41.75949127 4.88305664 37.40454102 C4.75381403 35.5262474 4.62873866 33.64766189 4.50805664 31.76879883 C4.3329709 29.05460967 4.14249116 26.34185395 3.94921875 23.62890625 C3.89908127 22.80040665 3.84894379 21.97190704 3.79728699 21.11830139 C3.41872512 16.05599612 2.42736313 11.68601829 0.64118958 6.92930603 C-0.14546294 4.56230958 -0.23954539 2.47530236 0 0 Z " fill="#958746" transform="translate(350,142)"/>
<path d="M0 0 C4.95 0.99 4.95 0.99 10 2 C10 11.24 10 20.48 10 30 C3 30 3 30 0 28 C-0.34057617 25.20263672 -0.34057617 25.20263672 -0.29296875 21.6796875 C-0.28330078 20.42285156 -0.27363281 19.16601562 -0.26367188 17.87109375 C-0.23853516 16.55238281 -0.21339844 15.23367188 -0.1875 13.875 C-0.17245483 12.53517097 -0.15876613 11.19532596 -0.14648438 9.85546875 C-0.11102872 6.56991158 -0.06160849 3.28515418 0 0 Z " fill="#987332" transform="translate(226,373)"/>
<path d="M0 0 C0.66 0 1.32 0 2 0 C1.68950274 1.43793392 1.3765224 2.8753318 1.0625 4.3125 C0.88847656 5.11300781 0.71445313 5.91351563 0.53515625 6.73828125 C0 9 0 9 -1 12 C-1.28054604 14.94591702 -1.51749433 17.88060551 -1.71875 20.83203125 C-1.78155151 21.70139816 -1.84435303 22.57076508 -1.90905762 23.46647644 C-2.10970884 26.24823624 -2.3053073 29.03031726 -2.5 31.8125 C-2.69505317 34.58394073 -2.89128068 37.35527584 -3.09094238 40.12638855 C-3.2150606 41.8502405 -3.33652498 43.5742862 -3.45495605 45.29853821 C-3.76273841 49.5861659 -4.2051981 53.76802098 -5 58 C-8 57 -8 57 -9.16796875 54.7421875 C-13.79509771 39.49221319 -8.33949131 16.29000847 -2 2 C-1.34 1.34 -0.68 0.68 0 0 Z " fill="#D1BC62" transform="translate(143,143)"/>
<path d="M0 0 C0.66 0 1.32 0 2 0 C2.81192386 6.22474957 0.8427053 9.51508778 -2.58984375 14.66796875 C-3.90481439 16.84258779 -4.5497055 18.52053029 -5 21 C-5.66 21 -6.32 21 -7 21 C-7.34417969 21.85271484 -7.34417969 21.85271484 -7.6953125 22.72265625 C-9.34004816 25.59355712 -11.36492069 27.28866356 -13.875 29.4375 C-16.58760781 31.76548432 -18.9365327 33.91922344 -21.1484375 36.734375 C-23 39 -23 39 -25.75 39.8125 C-26.4925 39.874375 -27.235 39.93625 -28 40 C-27.6112938 33.78070075 -23.33446684 29.06754958 -18.84765625 25.09375 C-18.09355469 24.4646875 -17.33945312 23.835625 -16.5625 23.1875 C-12.14570797 19.43471893 -9.33868552 15.29119671 -6.41015625 10.3203125 C-5 8 -5 8 -3 6 C-2.31246699 4.34183216 -1.64438717 2.67540664 -1 1 C-0.67 0.67 -0.34 0.34 0 0 Z " fill="#B69A4B" transform="translate(334,237)"/>
<path d="M0 0 C3.63 0.33 7.26 0.66 11 1 C11 8.59 11 16.18 11 24 C9.35 24 7.7 24 6 24 C6 23.34 6 22.68 6 22 C4.02 21.67 2.04 21.34 0 21 C0 14.07 0 7.14 0 0 Z " fill="#A57C36" transform="translate(223,414)"/>
<path d="M0 0 C3.93981221 1.31327074 4.20174819 2.76077317 6.125 6.375 C10.39761505 13.95369772 15.43004421 21.35519919 22.3125 26.8125 C25.32776866 29.26678844 27.12179349 31.60478055 29 35 C29 36.32 29 37.64 29 39 C28.34 39 27.68 39 27 39 C27 38.34 27 37.68 27 37 C26.32582031 36.8040625 25.65164062 36.608125 24.95703125 36.40625 C20.85405761 34.455034 17.96111626 31.60841832 14.6875 28.5 C14.04232422 27.90574219 13.39714844 27.31148438 12.73242188 26.69921875 C9.22503437 23.410811 9.22503437 23.410811 8 22 C8 21.34 8 20.68 8 20 C7.34 20 6.68 20 6 20 C6 18.68 6 17.36 6 16 C5.34 16 4.68 16 4 16 C3.32320342 14.274773 2.65898 12.54461061 2 10.8125 C1.443125 9.36810547 1.443125 9.36810547 0.875 7.89453125 C0.02363228 5.07817642 -0.17072647 2.91835561 0 0 Z " fill="#AD9348" transform="translate(160,238)"/>
<path d="M0 0 C1.22894509 3.68683526 0.62037557 4.57571116 -1 8 C-4.45693344 14.23276103 -9.09407169 19.72796332 -13.5625 25.25 C-14.11655518 25.93553955 -14.67061035 26.6210791 -15.24145508 27.32739258 C-18.32434943 31.09425096 -21.48980791 34.62707799 -25 38 C-25.80486179 33.3298143 -26.02754491 29.55710706 -23.34765625 25.49609375 C-20.97984021 22.90356406 -18.51397352 20.45084567 -16 18 C-14.25858091 16.11541492 -12.5293312 14.21951128 -10.8125 12.3125 C-9.98621094 11.405 -9.15992188 10.4975 -8.30859375 9.5625 C-5.47971457 6.42249197 -2.7266518 3.22892977 0 0 Z " fill="#B08F43" transform="translate(264,274)"/>
<path d="M0 0 C0.27499955 2.89666191 0.47021905 5.16802917 0 8 C-2.3515625 10.546875 -2.3515625 10.546875 -5.625 12.75 C-6.81159828 13.58166712 -7.99507777 14.41779764 -9.17578125 15.2578125 C-9.79791504 15.69383789 -10.42004883 16.12986328 -11.06103516 16.57910156 C-14.4675304 19.0754252 -17.62996147 21.85250193 -20.8125 24.625 C-21.42883301 25.15834961 -22.04516602 25.69169922 -22.68017578 26.24121094 C-24.12276117 27.49109551 -25.5617965 28.7450758 -27 30 C-28.15817691 26.52546927 -27.6476055 25.13523688 -26.12890625 21.88671875 C-22.3962654 15.64842971 -16.00377724 11.27388356 -10.37109375 6.8671875 C-8.36755379 5.28944104 -6.42759184 3.66838023 -4.5 2 C-2 0 -2 0 0 0 Z " fill="#CCBA62" transform="translate(250,157)"/>
<path d="M0 0 C3.21666411 -0.35297907 4.62652052 -0.25986639 7.32421875 1.6171875 C8.10410156 2.36226563 8.88398438 3.10734375 9.6875 3.875 C10.55632812 4.70128906 11.42515625 5.52757813 12.3203125 6.37890625 C13.64675781 7.67634766 13.64675781 7.67634766 15 9 C15.84304688 9.79277344 16.68609375 10.58554688 17.5546875 11.40234375 C22.11047428 15.7807245 26.32992426 20.36215285 30.25 25.3125 C31.01828125 26.27800781 31.7865625 27.24351562 32.578125 28.23828125 C34 31 34 31 33.234375 33.85546875 C32.82703125 34.56316406 32.4196875 35.27085937 32 36 C31.44183594 35.30003906 30.88367188 34.60007813 30.30859375 33.87890625 C27.90828112 30.88562299 25.49621735 27.9037102 23.0625 24.9375 C22.22847656 23.91527344 21.39445312 22.89304688 20.53515625 21.83984375 C18.17814006 19.1995498 15.77311641 17.17791094 13 15 C11.80072006 13.65335092 10.63168601 12.27893123 9.5 10.875 C6.81727665 7.69439132 4.88866884 6.48684397 1 5 C0.1875 2.375 0.1875 2.375 0 0 Z " fill="#C4B76B" transform="translate(299,106)"/>
<path d="M0 0 C2.64 0 5.28 0 8 0 C8 8.58 8 17.16 8 26 C5.69 26 3.38 26 1 26 C0.67 17.42 0.34 8.84 0 0 Z " fill="#A57D37" transform="translate(244,377)"/>
<path d="M0 0 C4.13211045 0.27547403 5.7066708 0.46678441 8.75 3.25 C9.38622528 6.49201665 9.21882942 9.64977213 9.0625 12.9375 C9.02866211 14.27651367 9.02866211 14.27651367 8.99414062 15.64257812 C8.93520574 17.84674272 8.85300818 20.04752672 8.75 22.25 C7.76 22.25 6.77 22.25 5.75 22.25 C4.71210419 20.60666496 3.71432076 18.93756133 2.75 17.25 C1.76 16.59 0.77 15.93 -0.25 15.25 C-1.1640625 13.33984375 -1.1640625 13.33984375 -1.875 11.1875 C-2.66817046 8.47854212 -2.66817046 8.47854212 -4.25 6.25 C-4.375 3.75 -4.375 3.75 -4.25 1.25 C-3.25 0.25 -3.25 0.25 0 0 Z " fill="#987333" transform="translate(201.25,403.75)"/>
<path d="M0 0 C4 0 4 0 5.67578125 1.5390625 C6.21589844 2.22742188 6.75601563 2.91578125 7.3125 3.625 C9.62564995 6.45549962 11.86892042 8.81489247 14.75 11.0625 C18.30593221 13.97262389 19.50707425 16.68710338 21 21 C21.33 21.66 21.66 22.32 22 23 C22.04022391 25.3329866 22.04320247 27.66706666 22 30 C20.35 30 18.7 30 17 30 C16.74347656 29.18917969 16.48695313 28.37835938 16.22265625 27.54296875 C13.02381452 18.2910999 8.49886252 11.01438124 1.2265625 4.3828125 C0 3 0 3 0 0 Z " fill="#A3863F" transform="translate(175,275)"/>
<path d="M0 0 C0.5534764 2.07553648 1 3.84365964 1 6 C1.66 6 2.32 6 3 6 C3.33 5.34 3.66 4.68 4 4 C3.71997626 7.68847989 3.42388531 11.3755044 3.125 15.0625 C3.04636719 16.10083984 2.96773437 17.13917969 2.88671875 18.20898438 C2.43121593 23.72757618 1.77317737 28.74752082 0 34 C-3.875 33.125 -3.875 33.125 -5 32 C-5.84326984 20.63207388 -3.84416468 10.64537911 0 0 Z " fill="#BDAC5A" transform="translate(154,155)"/>
<path d="M0 0 C-0.58502326 3.17289083 -1.48756969 4.8489914 -3.6875 7.1875 C-8.16072665 12.20912704 -12.15032907 17.61135927 -14.6875 23.875 C-15.8607222 26.66838618 -16.59251402 28.22055384 -19 30 C-19.66 30 -20.32 30 -21 30 C-21.7643883 23.12050533 -19.66529657 17.80401602 -16 12 C-14.09647369 9.64830167 -12.06085829 7.46636631 -9.9375 5.3125 C-9.41897461 4.78309814 -8.90044922 4.25369629 -8.36621094 3.70825195 C-5.28487249 0.74076335 -4.44570946 0 0 0 Z " fill="#A68941" transform="translate(320,275)"/>
<path d="M0 0 C1.45599609 0.00773437 1.45599609 0.00773437 2.94140625 0.015625 C3.90949219 0.01046875 4.87757813 0.0053125 5.875 0 C8.50390625 0.265625 8.50390625 0.265625 11.50390625 2.265625 C10.62890625 10.140625 10.62890625 10.140625 9.50390625 11.265625 C7.71553003 11.39086959 5.92162411 11.44136176 4.12890625 11.453125 C3.15179688 11.46730469 2.1746875 11.48148438 1.16796875 11.49609375 C-1.49609375 11.265625 -1.49609375 11.265625 -4.49609375 9.265625 C-4.80859375 5.765625 -4.80859375 5.765625 -4.49609375 2.265625 C-2.49609375 0.265625 -2.49609375 0.265625 0 0 Z " fill="#ECE2A2" transform="translate(244.49609375,62.734375)"/>
<path d="M0 0 C4.54805635 -0.17835515 7.8794254 0.00214565 12 2 C12 2.66 12 3.32 12 4 C12.721875 4.268125 13.44375 4.53625 14.1875 4.8125 C19.39239874 7.01012391 23.30542179 9.67206553 27 14 C27 15.32 27 16.64 27 18 C22.17278114 18 20.02633142 16.32324904 16.6875 13.125 C12.45387732 9.10737848 8.65312988 7.28297983 3 6 C3 5.34 3 4.68 3 4 C2.01 3.67 1.02 3.34 0 3 C0 2.01 0 1.02 0 0 Z " fill="#CBC079" transform="translate(291,92)"/>
<path d="M0 0 C1.32 0 2.64 0 4 0 C5.76763813 5.30291439 6.01400217 10.50537576 5 16 C2.50664514 19.67468226 -0.36174486 22.4584752 -4 25 C-4.66 25 -5.32 25 -6 25 C-5.71572583 23.41532272 -5.42225182 21.8322943 -5.125 20.25 C-4.96257812 19.36828125 -4.80015625 18.4865625 -4.6328125 17.578125 C-4 15 -4 15 -2.96484375 12.99609375 C-1.78349419 10.55208717 -1.62488282 8.51160992 -1.4375 5.8125 C-1.09936909 1.09936909 -1.09936909 1.09936909 0 0 Z " fill="#D0C26C" transform="translate(242,125)"/>
<path d="M0 0 C-0.27734375 1.9140625 -0.27734375 1.9140625 -1 4 C-2.90181572 4.73403414 -4.80973895 5.45638098 -6.74609375 6.09375 C-11.3163257 7.93134759 -15.03492285 11.26131422 -18.6953125 14.5 C-22.65269886 18 -22.65269886 18 -27 18 C-26.52299741 13.70697665 -24.0706636 11.84587745 -21 9 C-19.01724098 7.53051762 -16.99494036 6.1129567 -14.9375 4.75 C-13.91527344 4.06421875 -12.89304688 3.3784375 -11.83984375 2.671875 C-7.71712423 0.24474439 -4.73424461 -0.13150679 0 0 Z " fill="#C6BB77" transform="translate(204,92)"/>
<path d="M0 0 C0.66 0.33 1.32 0.66 2 1 C3.67654729 0.72057545 5.34608154 0.39171753 7 0 C6.34 1.32 5.68 2.64 5 4 C4.34 4 3.68 4 3 4 C1.34099401 5.67662375 -0.25318425 7.41778182 -1.8125 9.1875 C-8.52230412 16.77028923 -8.52230412 16.77028923 -12 20 C-12.66 20 -13.32 20 -14 20 C-14.825 20.66 -15.65 21.32 -16.5 22 C-19 24 -19 24 -21 24 C-21 19.38 -21 14.76 -21 10 C-20.67 10 -20.34 10 -20 10 C-20 13.96 -20 17.92 -20 22 C-19.34 22 -18.68 22 -18 22 C-17.79117188 21.47277344 -17.58234375 20.94554687 -17.3671875 20.40234375 C-15.42927353 16.99715205 -12.81805324 14.38794554 -10.125 11.5625 C-6.58347566 7.81847975 -3.1585903 4.08175316 0 0 Z " fill="#362E13" transform="translate(260,272)"/>
<path d="M0 0 C0.99 0 1.98 0 3 0 C5.48063781 15.74487472 5.48063781 15.74487472 4 23 C2.68 23.33 1.36 23.66 0 24 C-3.59615954 18.6057607 -2.6914283 10.77901331 -1.546875 4.5234375 C-1 2.625 -1 2.625 0 0 Z " fill="#A3924B" transform="translate(163,182)"/>
<path d="M0 0 C0.99 0.495 0.99 0.495 2 1 C2 3.97 2 6.94 2 10 C2.66 10 3.32 10 4 10 C5.21800872 18.06930778 6.46834267 26.39158031 3 34 C2.34 34 1.68 34 1 34 C-0.15792475 30.3298994 -0.11388663 26.87724396 -0.09765625 23.046875 C-0.0962413 22.38665344 -0.09482635 21.72643188 -0.09336853 21.04620361 C-0.08779245 18.94742206 -0.07524447 16.84874905 -0.0625 14.75 C-0.0574819 13.32291821 -0.05291954 11.89583475 -0.04882812 10.46875 C-0.03783088 6.97913168 -0.0205828 3.48957644 0 0 Z " fill="#D6C164" transform="translate(357,166)"/>
<path d="M0 0 C0.99 0.33 1.98 0.66 3 1 C3.70905938 2.98536627 4.36694179 4.98910922 5 7 C5.70125 8.11375 6.4025 9.2275 7.125 10.375 C9.50967928 14.32296902 9.3182918 17.46434191 9 22 C6.67578125 21.84765625 6.67578125 21.84765625 4 21 C0.05260257 14.9083373 -1.81349516 8.18587394 -1 1 C-0.67 0.67 -0.34 0.34 0 0 Z " fill="#BDA553" transform="translate(140,216)"/>
<path d="M0 0 C1.734375 0.0703125 1.734375 0.0703125 4 1 C5.60161588 3.28551755 6.93538542 5.43565962 8.25 7.875 C8.61351562 8.51308594 8.97703125 9.15117187 9.3515625 9.80859375 C10.97129628 12.7253324 12 14.61457647 12 18 C9.21282111 17.91802415 7.48247233 17.43764605 5.40234375 15.55078125 C2.55516794 12.32584748 0.00886707 9.25966095 -1 5 C-0.625 2.1875 -0.625 2.1875 0 0 Z " fill="#A78E45" transform="translate(156,250)"/>
<path d="M0 0 C0.66 0 1.32 0 2 0 C2.23046875 2.28515625 2.23046875 2.28515625 2 5 C0.42578125 6.80859375 0.42578125 6.80859375 -1.6875 8.4375 C-4.35191979 10.58214721 -6.58347028 12.56814858 -8.625 15.3125 C-11.28614845 18.32379956 -13.1364307 19.10149551 -17 20 C-16.8527662 15.14128462 -14.38561726 12.99216661 -11.05078125 9.84375 C-8.25601254 7.33111985 -5.44961144 4.83499363 -2.6015625 2.3828125 C-1.71147181 1.61429517 -0.83152881 0.83152881 0 0 Z " fill="#B8A959" transform="translate(247,146)"/>
<path d="M0 0 C0.99 0 1.98 0 3 0 C3.4567605 7.00366097 2.3580889 13.99879594 -2.0625 19.625 C-4 21 -4 21 -6 21 C-6.28370628 15.42044324 -6.17531869 12.70417583 -3 8 C-1.90147632 5.36255351 -0.95859815 2.69320432 0 0 Z " fill="#C6AD57" transform="translate(353,217)"/>
<path d="M0 0 C1.32 0.33 2.64 0.66 4 1 C1.69 2.65 -0.62 4.3 -3 6 C-2.01 6.66 -1.02 7.32 0 8 C-0.33 9.32 -0.66 10.64 -1 12 C-1 11.01 -1 10.02 -1 9 C-6.24990666 10.99496453 -9.83001375 13.23684167 -14 17 C-14 16.34 -14 15.68 -14 15 C-15.65 15 -17.3 15 -19 15 C-19 14.34 -19 13.68 -19 13 C-18.030625 12.67 -17.06125 12.34 -16.0625 12 C-11.63746992 10.13445779 -8.48415944 7.09614269 -5.015625 3.83984375 C-3 2 -3 2 0 0 Z " fill="#514B2B" transform="translate(196,97)"/>
<path d="M0 0 C-1.67001116 5.69321985 -3.66603686 10.05282889 -7 15 C-7.84408408 17.32005235 -8.42232239 19.59300996 -9 22 C-9.99 22 -10.98 22 -12 22 C-12.36906062 12.77348439 -9.90448679 8.47448344 -3.875 1.7578125 C-2 0 -2 0 0 0 Z " fill="#A8843C" transform="translate(246,314)"/>
<path d="M0 0 C1.29599488 3.88798463 0.38109952 5.05659075 -1.25 8.75 C-1.94996094 10.34521484 -1.94996094 10.34521484 -2.6640625 11.97265625 C-3.10492188 12.97167969 -3.54578125 13.97070312 -4 15 C-4.54301395 16.39530976 -5.0849908 17.7910246 -5.625 19.1875 C-6.07875 20.115625 -6.5325 21.04375 -7 22 C-7.99 22.33 -8.98 22.66 -10 23 C-10.12154593 14.02296468 -7.5984998 8.00782192 -2 1 C-1.34 0.67 -0.68 0.34 0 0 Z " fill="#CEBE66" transform="translate(164,139)"/>
<path d="M0 0 C1.32 0 2.64 0 4 0 C5.41693757 2.83387515 5.1699013 5.28029373 5.1875 8.4375 C5.20167969 9.59121094 5.21585937 10.74492187 5.23046875 11.93359375 C5 15 5 15 3 18 C2.01 18 1.02 18 0 18 C0 12.06 0 6.12 0 0 Z " fill="#B5A051" transform="translate(338,202)"/>
<path d="M0 0 C0.99 0.33 1.98 0.66 3 1 C3 6.94 3 12.88 3 19 C1 19 1 19 -0.60546875 17.94140625 C-2.71469877 15.0050272 -2.36040476 12.50087706 -2.3125 8.9375 C-2.30863281 7.68839844 -2.30476562 6.43929687 -2.30078125 5.15234375 C-2 2 -2 2 0 0 Z " fill="#B5A052" transform="translate(154,201)"/>
<path d="M0 0 C0.66 0 1.32 0 2 0 C1.68950274 1.43793392 1.3765224 2.8753318 1.0625 4.3125 C0.88847656 5.11300781 0.71445313 5.91351563 0.53515625 6.73828125 C0 9 0 9 -1 12 C-1.2153564 13.84371272 -1.38829681 15.69253981 -1.53515625 17.54296875 C-1.66567383 19.15268555 -1.66567383 19.15268555 -1.79882812 20.79492188 C-1.88583984 21.91447266 -1.97285156 23.03402344 -2.0625 24.1875 C-2.15337891 25.31865234 -2.24425781 26.44980469 -2.33789062 27.61523438 C-2.56193614 30.40990736 -2.78250144 33.20481111 -3 36 C-3.33 36 -3.66 36 -4 36 C-4 29.4 -4 22.8 -4 16 C-4.33 17.65 -4.66 19.3 -5 21 C-5.66 21 -6.32 21 -7 21 C-6.50576325 15.36570107 -5.44124218 11.17543342 -3 6 C-2.62875 5.05125 -2.2575 4.1025 -1.875 3.125 C-1 1 -1 1 0 0 Z " fill="#9D904B" transform="translate(143,143)"/>
<path d="M0 0 C0.99 0 1.98 0 3 0 C3 2.31 3 4.62 3 7 C2.34 7 1.68 7 1 7 C0.731875 7.928125 0.46375 8.85625 0.1875 9.8125 C-1.46341463 14.24390244 -1.46341463 14.24390244 -4 16 C-5.32 16 -6.64 16 -8 16 C-7.40138258 13.64828869 -6.73075648 11.3140622 -6 9 C-5.34 8.67 -4.68 8.34 -4 8 C-2.96514123 5.68191636 -1.9644586 3.34824702 -1 1 C-0.67 0.67 -0.34 0.34 0 0 Z " fill="#AF9448" transform="translate(337,250)"/>
<path d="M0 0 C0.66 0.33 1.32 0.66 2 1 C0.69791667 2.46484375 -0.60416667 3.9296875 -1.90625 5.39453125 C-3.28151241 7.089448 -3.28151241 7.089448 -3 10 C-5.1171875 12.0078125 -5.1171875 12.0078125 -7.875 14.125 C-8.77992188 14.82882813 -9.68484375 15.53265625 -10.6171875 16.2578125 C-13 18 -13 18 -15 19 C-14.42655063 16.13275314 -14.1385485 15.1385485 -12 13 C-12 12.01 -12 11.02 -12 10 C-10.03905766 8.14702621 -8.10936139 6.47766029 -6 4.8125 C-5.42765625 4.34908203 -4.8553125 3.88566406 -4.265625 3.40820312 C-2.85022029 2.26408432 -1.42592549 1.13097959 0 0 Z " fill="#3F381B" transform="translate(248,165)"/>
<path d="M0 0 C-0.55023295 3.73665662 -1.94502744 5.18446617 -4.8125 7.5625 C-5.49957031 8.14128906 -6.18664062 8.72007813 -6.89453125 9.31640625 C-8.90040693 10.9203625 -10.93493465 12.47324382 -13 14 C-13 13.01 -13 12.02 -13 11 C-13.66 10.67 -14.32 10.34 -15 10 C-13.54474941 8.51780033 -12.085701 7.03932861 -10.625 5.5625 C-9.81289062 4.73878906 -9.00078125 3.91507812 -8.1640625 3.06640625 C-5.04979091 0.09267038 -4.47451344 0 0 0 Z " fill="#BAAE69" transform="translate(195,106)"/>
<path d="M0 0 C0.66 0 1.32 0 2 0 C3.49517388 5.76709923 4.51445191 11.03235788 4 17 C2.5 19 2.5 19 1 20 C1 19.34 1 18.68 1 18 C0.34 18 -0.32 18 -1 18 C-1.09706112 11.88514973 -0.77040851 6.06696699 0 0 Z " fill="#CBB55D" transform="translate(330,185)"/>
<path d="M0 0 C2.2587227 0.90348908 3.69978317 1.56254119 5.09375 3.59375 C6.34909524 6.92690806 6.46527936 10.22949099 6.625 13.75 C6.66367187 14.44738281 6.70234375 15.14476562 6.7421875 15.86328125 C6.83598624 17.57510818 6.91906174 19.28751682 7 21 C4.9522486 17.92837291 3.71835121 15.05800864 2.375 11.625 C1.92898438 10.50351563 1.48296875 9.38203125 1.0234375 8.2265625 C0.0756163 5.23839339 -0.22049257 3.0985009 0 0 Z " fill="#978C4A" transform="translate(350,142)"/>
<path d="M0 0 C-10.32944949 4.83506146 -19.70356043 5.26789975 -31 5 C-31 4.34 -31 3.68 -31 3 C-30.14619751 2.92483154 -30.14619751 2.92483154 -29.27514648 2.84814453 C-26.66191893 2.61407662 -24.04976061 2.3696142 -21.4375 2.125 C-20.54224609 2.04636719 -19.64699219 1.96773438 -18.72460938 1.88671875 C-13.06085654 1.34731372 -5.22073721 -2.08829488 0 0 Z " fill="#8B6B2F" transform="translate(272,345)"/>
<path d="M0 0 C0.66 0.33 1.32 0.66 2 1 C3.67654729 0.72057545 5.34608154 0.39171753 7 0 C6.34 1.32 5.68 2.64 5 4 C4.34 4 3.68 4 3 4 C1.40121925 5.74574388 -0.01415879 7.59881337 -1.46484375 9.46875 C-3 11 -3 11 -6 11 C-8.15028304 11.94978897 -8.15028304 11.94978897 -10 13 C-8.48446596 9.52224821 -6.4226544 7.0442016 -3.875 4.25 C-3.15054687 3.45078125 -2.42609375 2.6515625 -1.6796875 1.828125 C-0.84824219 0.92320312 -0.84824219 0.92320312 0 0 Z " fill="#3F3618" transform="translate(260,272)"/>
<path d="M0 0 C4 0 4 0 6.75 2.6875 C8.54982067 5.00470031 8.98492666 5.8613253 9.3125 8.875 C9.1578125 9.926875 9.1578125 9.926875 9 11 C5.10476671 10.4229284 2.72938257 8.80519876 0 6 C-0.3125 2.75 -0.3125 2.75 0 0 Z " fill="#776733" transform="translate(166,223)"/>
<path d="M0 0 C0.33 0 0.66 0 1 0 C0.94791754 3.23045973 0.85279846 6.45828759 0.75 9.6875 C0.72873047 11.05551758 0.72873047 11.05551758 0.70703125 12.45117188 C0.55285013 16.69115272 0.34954287 19.3867669 -1.78125 23.125 C-4.2369381 25.20022938 -5.10414722 25.5746544 -8.25 25.3125 C-9.4875 25.209375 -10.725 25.10625 -12 25 C-12.33 23.68 -12.66 22.36 -13 21 C-8.545 21.99 -8.545 21.99 -4 23 C-2.53150438 18.59451314 -2.61157425 14.16167607 -2.37890625 9.54296875 C-2.00972119 6.09089815 -1.22433766 3.2368117 0 0 Z " fill="#5B532A" transform="translate(130,147)"/>
<path d="M0 0 C4.54805635 -0.17835515 7.8794254 0.00214565 12 2 C12 2.66 12 3.32 12 4 C12.99 4.33 13.98 4.66 15 5 C14.01 5.495 14.01 5.495 13 6 C12.01 5.67 11.02 5.34 10 5 C10.33 5.99 10.66 6.98 11 8 C8.36 7.34 5.72 6.68 3 6 C3 5.34 3 4.68 3 4 C2.01 3.67 1.02 3.34 0 3 C0 2.01 0 1.02 0 0 Z " fill="#8B8353" transform="translate(291,92)"/>
<path d="M0 0 C-0.50298788 4.40114397 -2.08772731 6.71195019 -5 10 C-6.32 9.67 -7.64 9.34 -9 9 C-9.36337162 5.72965541 -9.28544288 4.39116247 -7.3125 1.6875 C-4.60883753 -0.28544288 -3.27034459 -0.36337162 0 0 Z " fill="#BFB268" transform="translate(165,119)"/>
<path d="M0 0 C0.375 2.6875 0.375 2.6875 0 6 C-1.81426684 8.16704095 -3.61948534 9.38125003 -6 11 C-6.66 11 -7.32 11 -8 11 C-6.94230769 0 -6.94230769 0 0 0 Z " fill="#A69048" transform="translate(329,223)"/>
<path d="M0 0 C3 1 3 1 4.16796875 2.77734375 C4.50441406 3.49019531 4.84085937 4.20304688 5.1875 4.9375 C5.53167969 5.64777344 5.87585938 6.35804688 6.23046875 7.08984375 C7 9 7 9 7 11 C6.01 10.67 5.02 10.34 4 10 C3.34 10.66 2.68 11.32 2 12 C1.54625 11.030625 1.0925 10.06125 0.625 9.0625 C-0.65786221 5.92920418 -0.65786221 5.92920418 -3 5 C-2.67 3.68 -2.34 2.36 -2 1 C-1.67 1.33 -1.34 1.66 -1 2 C-0.67 1.34 -0.34 0.68 0 0 Z " fill="#BDAF5E" transform="translate(332,139)"/>
<path d="M0 0 C3.50150804 0.29179234 4.78286467 0.78286467 7.3125 3.3125 C9 6 9 6 9 10 C4.74278702 9.52697634 2.67053918 7.18981069 0 4 C0 2.68 0 1.36 0 0 Z " fill="#CABD6F" transform="translate(330,119)"/>
<path d="M0 0 C1.45599609 0.00773437 1.45599609 0.00773437 2.94140625 0.015625 C3.90949219 0.01046875 4.87757813 0.0053125 5.875 0 C8.50390625 0.265625 8.50390625 0.265625 11.50390625 2.265625 C10.91796875 8.41796875 10.91796875 8.41796875 10.50390625 10.265625 C9.51390625 10.760625 9.51390625 10.760625 8.50390625 11.265625 C8.50390625 8.625625 8.50390625 5.985625 8.50390625 3.265625 C7.04597741 3.21162764 5.58747913 3.17283323 4.12890625 3.140625 C2.91074219 3.10582031 2.91074219 3.10582031 1.66796875 3.0703125 C-0.70951618 3.05192449 -0.70951618 3.05192449 -2.49609375 5.265625 C-3.19357958 6.58309824 -3.86569332 7.91476693 -4.49609375 9.265625 C-4.62109375 5.890625 -4.62109375 5.890625 -4.49609375 2.265625 C-2.49609375 0.265625 -2.49609375 0.265625 0 0 Z " fill="#B3AB79" transform="translate(244.49609375,62.734375)"/>
<path d="M0 0 C1 3 1 3 0.4375 5.4375 C-1.44336758 8.79035091 -3.75869388 9.99039021 -7 12 C-8.36886951 13.29682374 -9.7169291 14.61823134 -11 16 C-11.66 15.67 -12.32 15.34 -13 15 C-11.58611621 13.24775086 -10.16877217 11.49829345 -8.75 9.75 C-7.96109375 8.77546875 -7.1721875 7.8009375 -6.359375 6.796875 C-4.33534195 4.39752456 -2.25877651 2.17588563 0 0 Z " fill="#A98B43" transform="translate(264,274)"/>
<path d="M0 0 C0.99 0 1.98 0 3 0 C6.43440322 5.95296558 6.13326437 12.33678156 6 19 C5.67 19 5.34 19 5 19 C4.34 13.72 3.68 8.44 3 3 C2.34 3 1.68 3 1 3 C1.01160156 3.56847656 1.02320313 4.13695312 1.03515625 4.72265625 C1.09223194 9.60670484 0.81956772 14.18503965 0 19 C-0.33 19 -0.66 19 -1 19 C-1.10655578 12.55929529 -0.96205088 6.37358711 0 0 Z " fill="#6F6332" transform="translate(329,182)"/>
<path d="M0 0 C-0.61875 0.0825 -1.2375 0.165 -1.875 0.25 C-4.1422246 0.7694572 -4.1422246 0.7694572 -4.84375 2.75 C-6.32816797 5.63859714 -8.30039598 7.49181323 -10.625 9.75 C-11.85089844 10.94882813 -11.85089844 10.94882813 -13.1015625 12.171875 C-13.72804687 12.77515625 -14.35453125 13.3784375 -15 14 C-15.734375 12.2578125 -15.734375 12.2578125 -16 10 C-14.453125 7.9296875 -14.453125 7.9296875 -12.25 5.875 C-11.53328125 5.19179687 -10.8165625 4.50859375 -10.078125 3.8046875 C-6.5487521 0.73970577 -4.63313545 -0.25043975 0 0 Z " fill="#B7AB63" transform="translate(143,117)"/>
<path d="M0 0 C0.33 0 0.66 0 1 0 C0.88655624 2.1464753 0.75893655 4.29220592 0.625 6.4375 C0.55539063 7.63246094 0.48578125 8.82742187 0.4140625 10.05859375 C0.27742187 11.02925781 0.14078125 11.99992188 0 13 C-0.99 13.495 -0.99 13.495 -2 14 C-2.68472665 15.88764903 -2.68472665 15.88764903 -3.125 18.0625 C-3.29257813 18.79597656 -3.46015625 19.52945313 -3.6328125 20.28515625 C-3.75398437 20.85105469 -3.87515625 21.41695312 -4 22 C-5.26823485 18.34606463 -4.75715321 15.50929974 -4.0625 11.75 C-3.86785156 10.67234375 -3.67320312 9.5946875 -3.47265625 8.484375 C-3.31667969 7.66453125 -3.16070312 6.8446875 -3 6 C-2.34 6 -1.68 6 -1 6 C-1.020625 5.195625 -1.04125 4.39125 -1.0625 3.5625 C-1 1 -1 1 0 0 Z " fill="#CFBD63" transform="translate(139,158)"/>
<path d="M0 0 C0.4375 2.125 0.4375 2.125 0 5 C-2.06360171 7.36870412 -4.33307541 9.33816904 -7 11 C-7.99 11 -8.98 11 -10 11 C-8.73396788 6.69549079 -5.08358566 0 0 0 Z " fill="#C1B25E" transform="translate(249,146)"/>
<path d="M0 0 C0 8.52380952 0 8.52380952 -2.3125 11.9375 C-4 13 -4 13 -8 13 C-6.40956621 7.91061189 -3.2553049 4.12543357 0 0 Z " fill="#B8AB5F" transform="translate(169,128)"/>
<path d="M0 0 C0.66 0.33 1.32 0.66 2 1 C0.2088872 2.95884243 -1.58286532 4.91709286 -3.375 6.875 C-3.88289062 7.43058594 -4.39078125 7.98617187 -4.9140625 8.55859375 C-6.9116026 10.74011781 -8.90816093 12.90816093 -11 15 C-11.99 14.67 -12.98 14.34 -14 14 C-9.38 9.38 -4.76 4.76 0 0 Z " fill="#464022" transform="translate(192,110)"/>
<path d="M0 0 C1.72526042 1.00911458 3.45052083 2.01822917 5.17578125 3.02734375 C7.13819555 4.13901247 7.13819555 4.13901247 10 5 C10.33 3.68 10.66 2.36 11 1 C11 2.98 11 4.96 11 7 C9.02 7 7.04 7 5 7 C4.67 7.66 4.34 8.32 4 9 C-0.00390625 4.60546875 -0.00390625 4.60546875 -1 3 C-0.67 2.01 -0.34 1.02 0 0 Z " fill="#504A2A" transform="translate(308,105)"/>
<path d="M0 0 C0.66 0 1.32 0 2 0 C2.33 0.99 2.66 1.98 3 3 C0.69 4.98 -1.62 6.96 -4 9 C-4 8.34 -4 7.68 -4 7 C-5.65 7 -7.3 7 -9 7 C-9 6.34 -9 5.68 -9 5 C-7.88625 4.54625 -6.7725 4.0925 -5.625 3.625 C-2.03800992 2.27534014 -2.03800992 2.27534014 0 0 Z " fill="#403B20" transform="translate(186,105)"/>
<path d="M0 0 C1.4540625 0.0309375 1.4540625 0.0309375 2.9375 0.0625 C2.6075 1.7125 2.2775 3.3625 1.9375 5.0625 C1.2775 5.0625 0.6175 5.0625 -0.0625 5.0625 C-0.0625 5.7225 -0.0625 6.3825 -0.0625 7.0625 C-1.3825 7.0625 -2.7025 7.0625 -4.0625 7.0625 C-4.10504356 5.06295254 -4.10330783 3.06208364 -4.0625 1.0625 C-3.0625 0.0625 -3.0625 0.0625 0 0 Z " fill="#988E58" transform="translate(210.0625,100.9375)"/>
<path d="M0 0 C0.33 1.32 0.66 2.64 1 4 C-3.5 8 -3.5 8 -8 8 C-7.42655063 5.13275314 -7.1385485 4.1385485 -5 2 C-3.35008418 1.29289322 -1.68437744 0.62056011 0 0 Z " fill="#DCCF82" transform="translate(185,102)"/>
<path d="M0 0 C0.33 0 0.66 0 1 0 C1.02710123 2.5625718 1.04688771 5.12485365 1.0625 7.6875 C1.07087891 8.40873047 1.07925781 9.12996094 1.08789062 9.87304688 C1.10543632 13.71555382 0.93524221 17.26639526 0 21 C0.99 21.33 1.98 21.66 3 22 C1.68 22.99 0.36 23.98 -1 25 C-1.18451025 8.29157175 -1.18451025 8.29157175 0 0 Z " fill="#937D3D" transform="translate(244,242)"/>
<path d="M0 0 C0.66 0.33 1.32 0.66 2 1 C1.28972656 1.77085937 0.57945312 2.54171875 -0.15234375 3.3359375 C-1.0808471 4.34885024 -2.00922606 5.36187701 -2.9375 6.375 C-3.40607422 6.88289062 -3.87464844 7.39078125 -4.35742188 7.9140625 C-6.97726768 10.74265854 -6.97726768 10.74265854 -9 14 C-9.66 14 -10.32 14 -11 14 C-9.8237487 7.27856401 -5.02570946 4.07434059 0 0 Z " fill="#A18F49" transform="translate(222,193)"/>
<path d="M0 0 C0.598125 0.226875 1.19625 0.45375 1.8125 0.6875 C1.1628125 1.2753125 1.1628125 1.2753125 0.5 1.875 C-1.30927457 3.68146625 -1.30927457 3.68146625 -2.625 6.1875 C-4.22546923 8.74825077 -5.68506426 10.04797314 -8.1875 11.6875 C-7.61405063 8.82025314 -7.3260485 7.8260485 -5.1875 5.6875 C-5.1875 4.6975 -5.1875 3.7075 -5.1875 2.6875 C-3.50238638 0.32834093 -2.94924297 -0.42132042 0 0 Z " fill="#383217" transform="translate(241.1875,172.3125)"/>
<path d="M0 0 C0.99 0 1.98 0 3 0 C2.49202991 4.3177458 1.80317221 8.03302114 0 12 C-0.66 12 -1.32 12 -2 12 C-1.85962479 10.18706911 -1.71255111 8.3746557 -1.5625 6.5625 C-1.48128906 5.55316406 -1.40007812 4.54382813 -1.31640625 3.50390625 C-1 1 -1 1 0 0 Z " fill="#83783E" transform="translate(168,162)"/>
<path d="M0 0 C0.89506817 2.96986552 1.03315169 5.25639788 0.66015625 8.328125 C0.56669922 9.12734375 0.47324219 9.9265625 0.37695312 10.75 C0.27318359 11.575 0.16941406 12.4 0.0625 13.25 C-0.08735352 14.51070312 -0.08735352 14.51070312 -0.24023438 15.796875 C-0.48704258 17.86536277 -0.74266284 19.93279572 -1 22 C-3 20 -3 20 -3.046875 17.96875 C-2.31811745 11.90855562 -1.30680402 5.96308629 0 0 Z " fill="#928545" transform="translate(118,146)"/>
<path d="M0 0 C-0.38520564 2.53910197 -0.70097943 3.72751123 -2.62890625 5.484375 C-3.26699219 5.90203125 -3.90507812 6.3196875 -4.5625 6.75 C-5.20316406 7.17796875 -5.84382812 7.6059375 -6.50390625 8.046875 C-7.24447266 8.51867187 -7.24447266 8.51867187 -8 9 C-8.66 8.34 -9.32 7.68 -10 7 C-9.09827532 5.82174642 -8.17798498 4.65768423 -7.25 3.5 C-6.73953125 2.8503125 -6.2290625 2.200625 -5.703125 1.53125 C-4 0 -4 0 0 0 Z " fill="#D6C97D" transform="translate(195,106)"/>
<path d="M0 0 C0.66 0 1.32 0 2 0 C1.71640113 1.4391134 1.42278601 2.87625518 1.125 4.3125 C0.96257812 5.11300781 0.80015625 5.91351563 0.6328125 6.73828125 C0 9 0 9 -2 12 C-2.66 11.67 -3.32 11.34 -4 11 C-3.71758359 9.53984709 -3.42373386 8.08190207 -3.125 6.625 C-2.96257812 5.81289062 -2.80015625 5.00078125 -2.6328125 4.1640625 C-2 2 -2 2 0 0 Z " fill="#BBAD5C" transform="translate(143,143)"/>
<path d="M0 0 C-0.33 1.32 -0.66 2.64 -1 4 C-1.99 3.67 -2.98 3.34 -4 3 C-4.804375 3.33 -5.60875 3.66 -6.4375 4 C-9.2281724 5.08904289 -10.25369638 5.01714949 -13 4 C-8.66957446 0.44286474 -5.53947792 -0.15387439 0 0 Z " fill="#99915C" transform="translate(204,92)"/>
<path d="M0 0 C0.99 0.33 1.98 0.66 3 1 C2.42655063 3.86724686 2.1385485 4.8614515 0 7 C-4.3021701 8.19896544 -8.61000021 9.17687504 -13 10 C-10.65408148 7.2289312 -8.85223799 6.47940716 -5.3125 5.8125 C-4.10013672 5.57466797 -4.10013672 5.57466797 -2.86328125 5.33203125 C-1.94095703 5.16767578 -1.94095703 5.16767578 -1 5 C-0.67 3.35 -0.34 1.7 0 0 Z " fill="#6B6542" transform="translate(207,67)"/>
<path d="M0 0 C2.86724686 0.57344937 3.8614515 0.8614515 6 3 C6.125 5.625 6.125 5.625 6 8 C3.5625 6.8125 3.5625 6.8125 1 5 C0.1875 2.3125 0.1875 2.3125 0 0 Z " fill="#C1A955" transform="translate(167,224)"/>
<path d="M0 0 C0.33 0 0.66 0 1 0 C1.66 4.29 2.32 8.58 3 13 C3.66 13 4.32 13 5 13 C5 14.65 5 16.3 5 18 C2 17 2 17 0.8203125 14.83203125 C-0.10285514 11.64490488 -0.19779145 8.99951116 -0.125 5.6875 C-0.10695312 4.61886719 -0.08890625 3.55023438 -0.0703125 2.44921875 C-0.04710937 1.64097656 -0.02390625 0.83273438 0 0 Z " fill="#AC9A4F" transform="translate(133,183)"/>
<path d="M0 0 C3.875 1.875 3.875 1.875 5 3 C5.04063832 4.66617115 5.042721 6.33388095 5 8 C3.68 8 2.36 8 1 8 C0.67 5.36 0.34 2.72 0 0 Z " fill="#988D4D" transform="translate(309,133)"/>
<path d="M0 0 C-1.51111111 3.77777778 -1.51111111 3.77777778 -4.0625 4.9375 C-4.701875 5.288125 -5.34125 5.63875 -6 6 C-6.81171228 8.55519921 -6.81171228 8.55519921 -7 11 C-7.66 11 -8.32 11 -9 11 C-7.84101462 6.46942077 -5.51745129 0 0 0 Z " fill="#483918" transform="translate(278,433)"/>
<path d="M0 0 C-4.65492322 3.56877447 -9.34849564 3.68175995 -15 4 C-12.83900627 1.83900627 -11.4789582 1.28436284 -8.625 0.3125 C-7.46871094 -0.09548828 -7.46871094 -0.09548828 -6.2890625 -0.51171875 C-3.79944692 -1.04278009 -2.38446982 -0.81115526 0 0 Z " fill="#5F4A20" transform="translate(277,359)"/>
<path d="M0 0 C0.99 0.33 1.98 0.66 3 1 C4.1875 4.0625 4.1875 4.0625 5 7 C3 7 3 7 1.375 5.5 C0.92125 5.005 0.4675 4.51 0 4 C-0.33 4.66 -0.66 5.32 -1 6 C-1.66 5.67 -2.32 5.34 -3 5 C-2.67 3.68 -2.34 2.36 -2 1 C-1.67 1.33 -1.34 1.66 -1 2 C-0.67 1.34 -0.34 0.68 0 0 Z " fill="#9E924F" transform="translate(332,139)"/>
<path d="M0 0 C2.475 0.495 2.475 0.495 5 1 C5 2.65 5 4.3 5 6 C3.35 5.67 1.7 5.34 0 5 C0 3.35 0 1.7 0 0 Z " fill="#827B4E" transform="translate(265,87)"/>
<path d="M0 0 C-6.07877934 3.24201565 -11.18401613 3.33278764 -18 3 C-18 2.67 -18 2.34 -18 2 C-17.15695313 1.86722656 -16.31390625 1.73445313 -15.4453125 1.59765625 C-14.34960938 1.42105469 -13.25390625 1.24445313 -12.125 1.0625 C-10.48917969 0.80146484 -10.48917969 0.80146484 -8.8203125 0.53515625 C-2.32466063 -0.69739819 -2.32466063 -0.69739819 0 0 Z " fill="#715827" transform="translate(272,345)"/>
<path d="M0 0 C1.35055201 2.70110402 1 5.00789006 1 8 C1.33 8.66 1.66 9.32 2 10 C1.67 10.99 1.34 11.98 1 13 C0.01 13 -0.98 13 -2 13 C-2.19294408 8.17639811 -1.75747614 4.50353262 0 0 Z " fill="#735B28" transform="translate(236,323)"/>
<path d="M0 0 C0.66 0 1.32 0 2 0 C1.55090939 1.48199902 1.09043436 2.96055236 0.625 4.4375 C0.36976563 5.26121094 0.11453125 6.08492188 -0.1484375 6.93359375 C-1 9 -1 9 -3 10 C-3 9.01 -3 8.02 -3 7 C-4.98 7.99 -4.98 7.99 -7 9 C-6.02180976 7.68677212 -5.0424189 6.37443848 -4.0625 5.0625 C-3.51722656 4.33160156 -2.97195312 3.60070312 -2.41015625 2.84765625 C-1 1 -1 1 0 0 Z " fill="#765F2B" transform="translate(244,314)"/>
<path d="M0 0 C4.08511822 4.9731874 4.12259508 8.62505604 4 15 C2.25674553 12.3851183 1.58412043 10.9946567 0.875 8.0625 C0.70742188 7.39347656 0.53984375 6.72445312 0.3671875 6.03515625 C0 4 0 4 0 0 Z " fill="#DBCA6B" transform="translate(353,148)"/>
<path d="M0 0 C1.65 0 3.3 0 5 0 C5 1.65 5 3.3 5 5 C3.68 5 2.36 5 1 5 C0.67 3.35 0.34 1.7 0 0 Z " fill="#896D32" transform="translate(202,318)"/>
<path d="M0 0 C2.475 0.495 2.475 0.495 5 1 C5 2.65 5 4.3 5 6 C3.68 5.67 2.36 5.34 1 5 C0.67 3.35 0.34 1.7 0 0 Z " fill="#8F7638" transform="translate(196,285)"/>
<path d="M0 0 C0.33 0.66 0.66 1.32 1 2 C0.67 2.99 0.34 3.98 0 5 C1.65 4.34 3.3 3.68 5 3 C3.29374499 5.78388975 2.52373261 6.85384206 -0.6875 7.75 C-1.8321875 7.87375 -1.8321875 7.87375 -3 8 C-2.45276317 4.62537285 -1.9451 2.91765 0 0 Z " fill="#6D5B2B" transform="translate(309,269)"/>
<path d="M0 0 C-0.33 2.31 -0.66 4.62 -1 7 C-2.32 7 -3.64 7 -5 7 C-5.1875 4.625 -5.1875 4.625 -5 2 C-2 0 -2 0 0 0 Z " fill="#9F9351" transform="translate(186,134)"/>
<path d="M0 0 C0.625 1.8125 0.625 1.8125 1 4 C0.01 5.485 0.01 5.485 -1 7 C-1.66 7 -2.32 7 -3 7 C-4.34882408 7.63474075 -5.6846659 8.29848848 -7 9 C-5.44499019 5.18315774 -2.96404505 2.80804268 0 0 Z " fill="#937F3E" transform="translate(276,238)"/>
<path d="M0 0 C1.32 0 2.64 0 4 0 C4 1.98 4 3.96 4 6 C2.68 6 1.36 6 0 6 C0 4.02 0 2.04 0 0 Z " fill="#8C7033" transform="translate(289,318)"/>
<path d="M0 0 C0.33 0 0.66 0 1 0 C1.33 1.65 1.66 3.3 2 5 C2.99 4.34 3.98 3.68 5 3 C4 5 3 7 2 9 C1.01 9 0.02 9 -1 9 C-0.67 6.03 -0.34 3.06 0 0 Z " fill="#645125" transform="translate(238,306)"/>
<path d="M0 0 C0.66 1.32 1.32 2.64 2 4 C2.66 3.67 3.32 3.34 4 3 C3.67 3.99 3.34 4.98 3 6 C2.34 6 1.68 6 1 6 C0.67 7.65 0.34 9.3 0 11 C-0.33 9.68 -0.66 8.36 -1 7 C-1.66 7 -2.32 7 -3 7 C-3 6.34 -3 5.68 -3 5 C-2.34 5 -1.68 5 -1 5 C-0.67 3.35 -0.34 1.7 0 0 Z " fill="#5C4E25" transform="translate(330,253)"/>
<path d="M0 0 C0.66 0 1.32 0 2 0 C2.125 3.375 2.125 3.375 2 7 C1.34 7.66 0.68 8.32 0 9 C-2 6 -2 6 -1.6875 3.375 C-1 1 -1 1 0 0 Z " fill="#937E3F" transform="translate(334,237)"/>
<path d="M0 0 C4.875 0.875 4.875 0.875 6 2 C6.07179964 3.51928038 6.08392007 5.04167482 6.0625 6.5625 C6.05347656 7.38878906 6.04445313 8.21507812 6.03515625 9.06640625 C6.02355469 9.70449219 6.01195312 10.34257812 6 11 C5.67 11 5.34 11 5 11 C5 8.36 5 5.72 5 3 C1.37114676 2.84850702 1.37114676 2.84850702 -2 4 C-1.34 2.68 -0.68 1.36 0 0 Z " fill="#82743A" transform="translate(373,198)"/>
<path d="M0 0 C1.32 0 2.64 0 4 0 C3.67 1.65 3.34 3.3 3 5 C1.68 5 0.36 5 -1 5 C-0.67 3.35 -0.34 1.7 0 0 Z " fill="#977C3B" transform="translate(295,285)"/>
<path d="M0 0 C1.32 0 2.64 0 4 0 C3 3 3 3 1 4 C0.53348793 6.12576782 0.53348793 6.12576782 0.375 8.5625 C0.30023438 9.38878906 0.22546875 10.21507812 0.1484375 11.06640625 C0.09945312 11.70449219 0.05046875 12.34257812 0 13 C-0.33 13 -0.66 13 -1 13 C-1.02708567 11.39592672 -1.04643483 9.7917215 -1.0625 8.1875 C-1.07410156 7.29417969 -1.08570312 6.40085938 -1.09765625 5.48046875 C-1 3 -1 3 0 0 Z " fill="#A4914A" transform="translate(118,198)"/>
<path d="M0 0 C0.99 0 1.98 0 3 0 C3 2.64 3 5.28 3 8 C2.34 8 1.68 8 1 8 C-0.35439668 5.29120665 -0.06501451 2.99066732 0 0 Z " fill="#9E904B" transform="translate(325,163)"/>
<path d="M0 0 C0.33 0.66 0.66 1.32 1 2 C2.98 1.34 4.96 0.68 7 0 C4.64619703 3.92300495 2.35535069 4.83857315 -2 6 C-1.125 1.125 -1.125 1.125 0 0 Z " fill="#766B37" transform="translate(232,160)"/>
<path d="M0 0 C0.66 0.33 1.32 0.66 2 1 C-3.14285714 7.57142857 -3.14285714 7.57142857 -7 9 C-5.44499019 5.18315774 -2.96404505 2.80804268 0 0 Z " fill="#897338" transform="translate(317,260)"/>
<path d="M0 0 C-0.33 2.31 -0.66 4.62 -1 7 C-1.99 7.33 -2.98 7.66 -4 8 C-3.74438677 5.6568787 -3.40729228 3.32156597 -3 1 C-1 0 -1 0 0 0 Z " fill="#E1CF6E" transform="translate(158,154)"/>
<path d="M0 0 C4.75 0.875 4.75 0.875 7 2 C7 2.66 7 3.32 7 4 C5.68 4.33 4.36 4.66 3 5 C2.67 4.01 2.34 3.02 2 2 C1.34 2 0.68 2 0 2 C0 1.34 0 0.68 0 0 Z " fill="#D2C57B" transform="translate(300,106)"/>
<path d="M0 0 C1.65 0 3.3 0 5 0 C5.33 1.32 5.66 2.64 6 4 C4.35 3.67 2.7 3.34 1 3 C0.67 2.01 0.34 1.02 0 0 Z " fill="#C8BD77" transform="translate(283,102)"/>
<path d="M0 0 C1.98 0.495 1.98 0.495 4 1 C3.34 2.65 2.68 4.3 2 6 C1.01 6 0.02 6 -1 6 C-0.67 4.02 -0.34 2.04 0 0 Z " fill="#2F2811" transform="translate(331,251)"/>
<path d="M0 0 C0 0.99 0 1.98 0 3 C0.0825 3.825 0.165 4.65 0.25 5.5 C0 8 0 8 -2 9.8125 C-2.66 10.204375 -3.32 10.59625 -4 11 C-3.71758359 9.53984709 -3.42373386 8.08190207 -3.125 6.625 C-2.96257812 5.81289062 -2.80015625 5.00078125 -2.6328125 4.1640625 C-2 2 -2 2 0 0 Z " fill="#B09F52" transform="translate(226,176)"/>
<path d="M0 0 C1.2077558 3.62326739 0.54311128 4.64146369 -1 8 C-1.33 7.01 -1.66 6.02 -2 5 C-2.99 5 -3.98 5 -5 5 C-3.35 3.35 -1.7 1.7 0 0 Z " fill="#877136" transform="translate(264,274)"/>
<path d="M0 0 C0 0.99 0 1.98 0 3 C-2.90600261 4.25664978 -4.79604584 5 -8 5 C-7.67 3.68 -7.34 2.36 -7 1 C-6.67 1.66 -6.34 2.32 -6 3 C-2.75016865 1.91215032 -2.75016865 1.91215032 0 0 Z " fill="#615327" transform="translate(335,263)"/>
<path d="M0 0 C1.98 0.495 1.98 0.495 4 1 C3.67 1.66 3.34 2.32 3 3 C2.34 2.67 1.68 2.34 1 2 C1 3.98 1 5.96 1 8 C-1 5 -1 5 -0.625 2.3125 C-0.41875 1.549375 -0.2125 0.78625 0 0 Z " fill="#826F36" transform="translate(156,250)"/>
<path d="M0 0 C2.875 -0.125 2.875 -0.125 6 0 C6.66 0.66 7.32 1.32 8 2 C5.6875 2.6875 5.6875 2.6875 3 3 C1.1875 1.5625 1.1875 1.5625 0 0 Z " fill="#DBCF87" transform="translate(293,94)"/>
</svg>
